<svg width="42" height="38" viewBox="0 0 42 38" fill="none" xmlns="http://www.w3.org/2000/svg">
<path d="M7.20062 27.8307V8.5957H14.2229C16.1072 8.5957 17.4789 8.93618 18.3379 9.61712C19.197 10.2981 19.6265 11.4213 19.6265 12.9868V13.8292C19.6632 14.6143 19.433 15.3887 18.9735 16.0264C18.4663 16.6282 17.755 17.0218 16.9756 17.1321C18.146 17.3497 18.929 17.861 19.3246 18.666C19.7466 19.589 19.9508 20.5965 19.9215 21.6109C19.9414 22.7195 19.7825 23.8241 19.451 24.8823C19.157 25.7864 18.5509 26.5566 17.7411 27.055C16.9194 27.5744 15.7432 27.8307 14.2299 27.8307H7.20062ZM12.2531 15.8264H13.3065C13.7875 15.8264 14.0965 15.6895 14.2369 15.4122C14.3805 15.1 14.4502 14.7589 14.4406 14.4153V12.4813C14.4406 11.8635 14.0719 11.5512 13.3381 11.5512H12.2531V15.8264ZM12.7693 24.4295C14.1152 24.4295 14.7882 23.9556 14.7882 23.0079V20.6035C14.8125 20.1478 14.696 19.6957 14.4546 19.3083C14.2323 18.9924 13.8179 18.8345 13.2117 18.8345H12.2531V24.4084C12.4872 24.4224 12.6628 24.4295 12.7798 24.4295H12.7693Z" fill="white"/>
<path d="M27.7269 27.9922C26.1539 27.9922 24.9016 27.7734 23.97 27.3358C23.1028 26.9593 22.3947 26.2912 21.9687 25.4474C21.5428 24.5156 21.3362 23.4985 21.3647 22.4744V15.8966C21.329 15.2166 21.4723 14.5392 21.7804 13.9319C22.0884 13.3246 22.5505 12.8087 23.1203 12.4357C24.2907 11.6542 25.9105 11.2622 27.9797 11.2599C32.2212 11.2599 34.3419 12.8054 34.3419 15.8966V17.0865C34.3419 18.5303 34.322 19.5002 34.2822 19.9963H26.649V23.1554C26.6487 23.4424 26.6734 23.729 26.7227 24.0118C26.7659 24.276 26.8883 24.5208 27.0739 24.7138C27.1864 24.8141 27.3183 24.8901 27.4615 24.9372C27.6046 24.9843 27.7559 25.0014 27.906 24.9876C28.4537 24.9876 28.7978 24.8086 28.9348 24.4576C29.0867 24.0129 29.1569 23.5443 29.1419 23.0746V21.4986H34.384V22.4288C34.4181 23.4881 34.2091 24.5411 33.7731 25.5071C33.3366 26.3598 32.6037 27.0238 31.7121 27.3744C30.7219 27.7886 29.3935 27.9945 27.7269 27.9922ZM26.6069 18.0342H29.1068V15.8264C29.1438 15.3813 29.0407 14.9358 28.8119 14.5523C28.7058 14.4221 28.5702 14.3191 28.4163 14.2519C28.2624 14.1848 28.0946 14.1554 27.9271 14.1662C27.7467 14.155 27.566 14.1824 27.3971 14.2466C27.2282 14.3107 27.0749 14.4102 26.9474 14.5382C26.678 14.9108 26.5532 15.3687 26.5963 15.8264L26.6069 18.0342Z" fill="white"/>
<path d="M35.2792 1H5.97528C3.22751 1 1 3.22681 1 5.97372V31.1863C1 33.9332 3.22751 36.16 5.97528 36.16H35.2792C38.027 36.16 40.2545 33.9332 40.2545 31.1863V5.97372C40.2545 3.22681 38.027 1 35.2792 1Z" stroke="#5984C0" stroke-width="1.99" stroke-miterlimit="10"/>
</svg>
